<mxfile host="app.diagrams.net" modified="2023-06-23T08:25:30.971Z" agent="Mozilla/5.0 (Windows NT 10.0; Win64; x64) AppleWebKit/537.36 (KHTML, like Gecko) Chrome/114.0.0.0 Safari/537.36 Edg/114.0.1823.51" etag="s7uARNoOomWO-uvEDgqt" version="21.5.0" type="github">
  <diagram id="C5RBs43oDa-KdzZeNtuy" name="Page-1">
    <mxGraphModel dx="1188" dy="549" grid="1" gridSize="10" guides="1" tooltips="1" connect="1" arrows="1" fold="1" page="1" pageScale="1" pageWidth="827" pageHeight="1169" math="0" shadow="0">
      <root>
        <mxCell id="WIyWlLk6GJQsqaUBKTNV-0" />
        <mxCell id="WIyWlLk6GJQsqaUBKTNV-1" parent="WIyWlLk6GJQsqaUBKTNV-0" />
        <mxCell id="mi-0mqEDp-cWeZ_jyFpW-8" value="" style="endArrow=classic;html=1;rounded=1;labelBackgroundColor=none;fontColor=default;" edge="1" parent="WIyWlLk6GJQsqaUBKTNV-1">
          <mxGeometry relative="1" as="geometry">
            <mxPoint x="100" y="270" as="sourcePoint" />
            <mxPoint x="250" y="310" as="targetPoint" />
          </mxGeometry>
        </mxCell>
        <mxCell id="mi-0mqEDp-cWeZ_jyFpW-9" value="message with expression" style="edgeLabel;resizable=0;html=1;align=center;verticalAlign=middle;rounded=1;labelBackgroundColor=none;" connectable="0" vertex="1" parent="mi-0mqEDp-cWeZ_jyFpW-8">
          <mxGeometry relative="1" as="geometry" />
        </mxCell>
        <mxCell id="mi-0mqEDp-cWeZ_jyFpW-10" value="" style="endArrow=classic;html=1;rounded=1;labelBackgroundColor=none;fontColor=default;" edge="1" parent="WIyWlLk6GJQsqaUBKTNV-1">
          <mxGeometry relative="1" as="geometry">
            <mxPoint x="100" y="270" as="sourcePoint" />
            <mxPoint x="250" y="230" as="targetPoint" />
          </mxGeometry>
        </mxCell>
        <mxCell id="mi-0mqEDp-cWeZ_jyFpW-11" value="message" style="edgeLabel;resizable=0;html=1;align=center;verticalAlign=middle;rounded=1;labelBackgroundColor=none;" connectable="0" vertex="1" parent="mi-0mqEDp-cWeZ_jyFpW-10">
          <mxGeometry relative="1" as="geometry" />
        </mxCell>
        <mxCell id="mi-0mqEDp-cWeZ_jyFpW-15" value="" style="shape=callout;whiteSpace=wrap;html=1;perimeter=calloutPerimeter;rounded=1;labelBackgroundColor=none;" vertex="1" parent="WIyWlLk6GJQsqaUBKTNV-1">
          <mxGeometry x="250" y="210" width="120" height="140" as="geometry" />
        </mxCell>
        <mxCell id="mi-0mqEDp-cWeZ_jyFpW-16" value="" style="shape=image;verticalLabelPosition=bottom;verticalAlign=top;imageAspect=0;aspect=fixed;image=data:image/svg+xml,PHN2ZyB4bWxucz0iaHR0cDovL3d3dy53My5vcmcvMjAwMC9zdmciIGZpbGw9Im5vbmUiIHZpZXdCb3g9IjAgMCAxMTQzIDI2NiIgaGVpZ2h0PSIyNjYiIHdpZHRoPSIxMTQzIj4mI3hhOzxwYXRoIGZpbGw9IiMyQTEzNTEiIGQ9Ik0zNDIuNTQyIDEzMy43NTNDMzQyLjU0MiAxODEuNzEzIDM3OC41MTIgMjA3LjM0NyA0MTYuNTUgMjA3LjM0N0M0NDYuNzMyIDIwNy4zNDcgNDc3LjUzNCAxOTEuNDMgNDgzLjczNSAxNTMuMTg1SDQ1My45NjdDNDQ5LjAwNiAxNzAuNzU3IDQzNC4zMjggMTc5LjIzMyA0MTYuMzQzIDE3OS4yMzNDMzkwLjUwMiAxNzkuMjMzIDM3My43NTcgMTU4LjU2IDM3My43NTcgMTMzLjc1M0MzNzMuNzU3IDEwNi4yNTkgMzkwLjkxNiA4Ny42NTMzIDQxNi41NSA4Ny42NTMzQzQzMy45MTUgODcuNjUzMyA0NDYuOTM4IDk0Ljg4ODggNDUzLjM0NyAxMTEuMjJINDgzLjMyMkM0NzYuNzA3IDc1LjQ1NjUgNDQ1LjY5OCA1OS43NDU0IDQxNi41NSA1OS43NDU0QzM3OC41MTIgNTkuMTI1MiAzNDIuNTQyIDg1LjU4NjEgMzQyLjU0MiAxMzMuNzUzWk01MzMuNTAzIDE0OC44NDRDNTMzLjUwMyAxMzQuNzg3IDU0My42MzMgMTI2LjkzMSA1NTQuNzk2IDEyNi45MzFDNTY2Ljk5MyAxMjYuOTMxIDU3MS4zMzQgMTMyLjUxMyA1NzIuOTg4IDE0My4wNTZDNTczLjYwOCAxNDcuODEgNTczLjYwOCAxNTMuMzkyIDU3My42MDggMTYwLjAwN1YxNzkuMDI2QzU3My42MDggMjA1LjI4IDU4OS43MzIgMjEwLjI0MiA2MTMuNzEzIDIwNS4yOFYxODcuOTE1QzYwMy45OTYgMTg4LjUzNSA2MDIuNTQ5IDE4Ni40NjggNjAyLjU0OSAxNzcuNTc5VjE1MC45MTFDNjAyLjU0OSAxNDUuOTUgNjAyLjM0MyAxNDEuNDAyIDYwMS43MjIgMTM2LjY0N0M1OTguNjIyIDExNy44MzUgNTg4LjQ5MiAxMDUuNDMyIDU2Ni4xNjYgMTA0LjM5OEM1NTMuNTU1IDEwMy43NzggNTQxLjU2NSAxMDcuNDk5IDUzMy41MDMgMTE5LjY5NlY1NC43ODRINTA0LjU2MVYyMDYuMTA3SDUzMy41MDNWMTQ4Ljg0NFpNNzI2LjAxMyAxMTMuMjg3QzcxMi43ODMgMTA3LjcwNiA2OTguMzEyIDEwNC4xOTEgNjgzLjYzNCAxMDMuOTg1QzY0OS45MzggMTAzLjM2NCA2MjYuOTkxIDEyMS4xNDMgNjI1Ljk1OCAxNTQuODM5QzYyNS45NTggMTgzLjE2MSA2NDAuMjIyIDIwNi45MzQgNjcxLjAyNCAyMDcuNTU0QzY4NC4yNTQgMjA3LjU1NCA2OTcuMDcxIDIwMC43MzIgNzAyLjY1MyAxODguMzI5QzcwMi42NTMgMjA4Ljc5NSA3MjIuMDg1IDIwNy43NjEgNzM1LjUyMiAyMDQuODY3VjE4Ni4yNjFDNzI1LjYgMTg2Ljg4MiA3MjYuMDEzIDE4Mi4zMzQgNzI2LjAxMyAxNzMuODU4VjExMy4yODdaTTY5Ny44OTggMTU1Ljg3M0M2OTcuMjc4IDE3MC45NjQgNjkxLjA3NiAxODEuOTIgNjc3LjIyNiAxODEuOTJDNjYyLjM0MSAxODIuMTI3IDY1NC44OTkgMTcwLjU1IDY1NC44OTkgMTU0LjgzOUM2NTUuNTIgMTM1LjgyIDY2NS42NDkgMTI3LjEzOCA2ODEuMzYgMTI3LjEzOEM2ODYuMzIyIDEyNy4xMzggNjkyLjMxNyAxMjcuNzU4IDY5Ny44OTggMTMwLjAzMlYxNTUuODczWk03NTMuNjI5IDc3LjUyMzhDNzUzLjYyOSA5OS44NTAyIDc4Ny41MzIgOTkuODUwMiA3ODcuNTMyIDc3LjUyMzhDNzg3LjUzMiA1NS40MDQyIDc1My42MjkgNTUuNDA0MiA3NTMuNjI5IDc3LjUyMzhaTTc4NS4wNTEgMTA3LjQ5OUg3NTYuMTA5VjIwNS45SDc4NS4wNTFWMTA3LjQ5OVpNODA0Ljk5MiAxMjIuNzk3QzgxNi4xNTUgMTIyLjE3NyA4MTUuOTQ4IDEyNi4xMDQgODE1Ljk0OCAxMzcuMDYxVjIwNS45SDg0NC44OVYxNDguNjM3Qzg0NC44OSAxMzQuNzg3IDg1NS4wMTkgMTI2LjMxMSA4NjUuNzY5IDEyNi45MzFDODc2LjMxMiAxMjYuOTMxIDg4NS4yMDEgMTM0LjE2NyA4ODQuOTk1IDE0OC4wMTdWMTgyLjk1NEM4ODQuOTk1IDIwNy43NjEgOTA0LjYzNCAyMTAuMjQyIDkyNC4yNzMgMjA1LjI4VjE4OC4zMjlDOTE0LjE0MyAxODguOTQ5IDkxMy43MyAxODQuNDAxIDkxMy43MyAxNzUuMDk4VjE0OC4wMTdDOTE0LjM1IDEyMy4yMSA5MDIuNTY2IDEwMy45ODUgODc0LjQ1MiAxMDMuOTg1Qzg2MS4yMjEgMTAzLjk4NSA4NDkuNDM4IDEwOS4xNTMgODQzLjAyOSAxMjAuOTM2Qzg0My4wMjkgMTAxLjcxMSA4MTkuNjY5IDEwMy4xNTggODA0Ljk5MiAxMDUuODQ1VjEyMi43OTdaTTk0Mi4wMTcgNTQuNTc3M1YxNjguMDdDOTQyLjAxNyAyMDMuODMzIDk2MC42MjIgMjExLjQ4MiA5OTEuNDI0IDIwNS45TDk5MC4zOTEgMTg0LjE5NEM5NzYuNTQgMTg2LjQ2OCA5NzAuNTQ1IDE4My4zNjcgOTcwLjU0NSAxNjguMDdWNTQuNTc3M0g5NDIuMDE3Wk0xMDA0LjM2IDc3LjUyMzhDMTAwNC4zNiA5OS44NTAyIDEwMzguMjcgOTkuODUwMiAxMDM4LjI3IDc3LjUyMzhDMTAzOC4yNyA1NS40MDQyIDEwMDQuMzYgNTUuNDA0MiAxMDA0LjM2IDc3LjUyMzhaTTEwMzUuNzkgMTA3LjQ5OUgxMDA2Ljg0VjIwNS45SDEwMzUuNzlWMTA3LjQ5OVpNMTEwMSA3NS40NTY1SDEwNzcuODVMMTA3NC43NSAxMDYuNDY1SDEwNTMuODdWMTI2LjMxMUwxMDcyLjY4IDEyOC4xNzJWMTY3LjQ0OUMxMDcyLjY4IDIwOC4zODEgMTEwMy4wNyAyMTMuOTYzIDExMzcuMzggMjA0LjQ1M0wxMTM0LjcgMTgyLjU0QzExMTguMTYgMTg4LjUzNSAxMTAxIDE4Ny41MDIgMTEwMSAxNjYuODI5VjEyOC4xNzJIMTEzMy40NlYxMDYuNDY1SDExMDFWNzUuNDU2NVoiLz4mI3hhOzxwYXRoIGZpbGw9InVybCgjcGFpbnQwX2xpbmVhcl8zNjFfMTUzNCkiIGQ9Ik04MC4wOTYxIDEyMS42MjZDNzguMjQ0IDExNS4yMTQgNzQuNzkxNCAxMDkuMTY3IDY5LjczODQgMTA0LjExNEM1My43ODQ4IDg4LjE2IDI3LjkxODggODguMTYgMTEuOTY1MiAxMDQuMTE0Qy0zLjk4ODQxIDEyMC4wNjcgLTMuOTg4NDEgMTQ1LjkzMyAxMS45NjUyIDE2MS44ODdDMTcuMDE4MyAxNjYuOTQgMjMuMDY1NyAxNzAuMzkyIDI5LjQ3NzcgMTcyLjI0NUMzMi44MTI0IDE3My4zMDcgMzYuNjQ5NSAxNzQuMTMzIDQwLjgzNDkgMTc1LjAzNEM1NC42ODA1IDE3OC4wMTYgNzIuMzM3NSAxODEuODE4IDg4LjIyNTggMTk3LjcwNkM4OC4yMjU4IDE5Ny43MDYgOTAuNTM2OCAxOTIuNTA3IDk1LjQ0NzUgMTg3LjU5NkMxMDAuMzU4IDE4Mi42ODUgMTA1LjU1OCAxODAuMzc0IDEwNS41NTggMTgwLjM3NEM4OS42Njk1IDE2NC40ODYgODUuODY3NCAxNDYuODI5IDgyLjg4NjEgMTMyLjk4M0M4MS45ODQ4IDEyOC43OTggODEuMTU4NiAxMjQuOTYxIDgwLjA5NjEgMTIxLjYyNloiLz4mI3hhOzxwYXRoIGZpbGw9InVybCgjcGFpbnQxX2xpbmVhcl8zNjFfMTUzNCkiIGQ9Ik0xODUuOTA0IDE0NC4zNzVDMTg3Ljc1NiAxNTAuNzg2IDE5MS4yMDkgMTU2LjgzNCAxOTYuMjYyIDE2MS44ODdDMjEyLjIxNSAxNzcuODQgMjM4LjA4MSAxNzcuODQgMjU0LjAzNSAxNjEuODg3QzI2OS45ODggMTQ1LjkzMyAyNjkuOTg4IDEyMC4wNjcgMjU0LjAzNSAxMDQuMTE0QzI0OC45ODIgOTkuMDYwNSAyNDIuOTM0IDk1LjYwOCAyMzYuNTIyIDkzLjc1NTlDMjMzLjE4OCA5Mi42OTM0IDIyOS4zNTEgOTEuODY3MiAyMjUuMTY1IDkwLjk2NkMyMTEuMzIgODcuOTg0NiAxOTMuNjYyIDg0LjE4MjUgMTc3Ljc3NCA2OC4yOTQyQzE3Ny43NzQgNjguMjk0MiAxNzUuNDYzIDczLjQ5MzggMTcwLjU1MyA3OC40MDQ1QzE2NS42NDIgODMuMzE1MyAxNjAuNDQyIDg1LjYyNjIgMTYwLjQ0MiA4NS42MjYyQzE3Ni4zMzEgMTAxLjUxNCAxODAuMTMzIDExOS4xNzIgMTgzLjExNCAxMzMuMDE3QzE4NC4wMTUgMTM3LjIwMyAxODQuODQxIDE0MS4wNCAxODUuOTA0IDE0NC4zNzVaIi8+JiN4YTs8cGF0aCBmaWxsPSJ1cmwoI3BhaW50Ml9saW5lYXJfMzYxXzE1MzQpIiBkPSJNOTMuNzU1OSAyOS40Nzc1Qzk1LjYwOCAyMy4wNjU2IDk5LjA2MDYgMTcuMDE4MiAxMDQuMTE0IDExLjk2NTJDMTIwLjA2NyAtMy45ODg0MSAxNDUuOTMzIC0zLjk4ODQxIDE2MS44ODcgMTEuOTY1MkMxNzcuODQgMjcuOTE4OCAxNzcuODQgNTMuNzg0OCAxNjEuODg3IDY5LjczODRDMTU2LjgzNCA3NC43OTE1IDE1MC43ODYgNzguMjQ0IDE0NC4zNzQgODAuMDk2MkMxNDEuMDQgODEuMTU4NiAxMzcuMjAzIDgxLjk4NDggMTMzLjAxNyA4Mi44ODYxQzExOS4xNzIgODUuODY3NCAxMDEuNTE0IDg5LjY2OTUgODUuNjI2MiAxMDUuNTU4Qzg1LjYyNjIgMTA1LjU1OCA4My4zMTUzIDEwMC4zNTggNzguNDA0NSA5NS40NDc1QzczLjQ5MzggOTAuNTM2OCA2OC4yOTQyIDg4LjIyNTggNjguMjk0MiA4OC4yMjU4Qzg0LjE4MjUgNzIuMzM3NSA4Ny45ODQ2IDU0LjY4MDUgOTAuOTY2IDQwLjgzNDlDOTEuODY3MiAzNi42NDk0IDkyLjY5MzUgMzIuODEyMiA5My43NTU5IDI5LjQ3NzVaIi8+JiN4YTs8cGF0aCBmaWxsPSJ1cmwoI3BhaW50M19saW5lYXJfMzYxXzE1MzQpIiBkPSJNMTcyLjI0NCAyMzYuNTIzQzE3MC4zOTIgMjQyLjkzNSAxNjYuOTM5IDI0OC45ODIgMTYxLjg4NiAyNTQuMDM1QzE0NS45MzMgMjY5Ljk4OSAxMjAuMDY3IDI2OS45ODkgMTA0LjExMyAyNTQuMDM1Qzg4LjE1OTYgMjM4LjA4MiA4OC4xNTk2IDIxMi4yMTYgMTA0LjExMyAxOTYuMjYyQzEwOS4xNjYgMTkxLjIwOSAxMTUuMjE0IDE4Ny43NTYgMTIxLjYyNiAxODUuOTA0QzEyNC45NiAxODQuODQyIDEyOC43OTcgMTg0LjAxNiAxMzIuOTgzIDE4My4xMTRDMTQ2LjgyOCAxODAuMTMzIDE2NC40ODYgMTc2LjMzMSAxODAuMzc0IDE2MC40NDNDMTgwLjM3NCAxNjAuNDQzIDE4Mi42ODUgMTY1LjY0MiAxODcuNTk1IDE3MC41NTNDMTkyLjUwNiAxNzUuNDY0IDE5Ny43MDYgMTc3Ljc3NSAxOTcuNzA2IDE3Ny43NzVDMTgxLjgxNyAxOTMuNjYzIDE3OC4wMTUgMjExLjMyIDE3NS4wMzQgMjI1LjE2NUMxNzQuMTMzIDIyOS4zNTEgMTczLjMwNyAyMzMuMTg4IDE3Mi4yNDQgMjM2LjUyM1oiLz4mI3hhOzxwYXRoIHN0cm9rZS1saW5lam9pbj0icm91bmQiIHN0cm9rZS1vcGFjaXR5PSIwLjEiIHN0cm9rZT0iYmxhY2siIGQ9Ik03OS42MTU3IDEyMS43NjVMNzkuNjE1NiAxMjEuNzY1TDc5LjYxOTcgMTIxLjc3OEM4MC42NzM0IDEyNS4wODUgODEuNDk0NiAxMjguODk3IDgyLjM5NzMgMTMzLjA4OUw4Mi40MDE5IDEzMy4xMUM4NS4zNTI0IDE0Ni44MTIgODkuMTMyMyAxNjQuMzY2IDEwNC43MSAxODAuMjI5QzEwNC42MjYgMTgwLjI3MSAxMDQuNTM2IDE4MC4zMTggMTA0LjQzOCAxODAuMzY4QzEwMy44NjQgMTgwLjY2NyAxMDMuMDQ5IDE4MS4xMTYgMTAyLjA4IDE4MS43MTlDMTAwLjE0MyAxODIuOTI1IDk3LjU4MjkgMTg0Ljc1MyA5NS4wOTM5IDE4Ny4yNDJDOTIuNjA1IDE4OS43MzEgOTAuNzc2OCAxOTIuMjkxIDg5LjU3MDcgMTk0LjIyOEM4OC45NjczIDE5NS4xOTcgODguNTE4NiAxOTYuMDEyIDg4LjIyIDE5Ni41ODZDODguMTY5MiAxOTYuNjg0IDg4LjEyMjcgMTk2Ljc3NSA4OC4wODA2IDE5Ni44NThDNzIuMjE4IDE4MS4yODEgNTQuNjY0IDE3Ny41MDEgNDAuOTYxOCAxNzQuNTVMNDAuOTQwMSAxNzQuNTQ2QzM2Ljc0ODMgMTczLjY0MyAzMi45MzY2IDE3Mi44MjIgMjkuNjI5NSAxNzEuNzY4TDI5LjYyOTUgMTcxLjc2OEwyOS42MTY0IDE3MS43NjRDMjMuMjgzNiAxNjkuOTM1IDE3LjMxMDYgMTY2LjUyNSAxMi4zMTg4IDE2MS41MzNDLTMuNDM5NTkgMTQ1Ljc3NSAtMy40Mzk1OSAxMjAuMjI2IDEyLjMxODggMTA0LjQ2N0MyOC4wNzcxIDg4LjcwODggNTMuNjI2NSA4OC43MDg4IDY5LjM4NDkgMTA0LjQ2N0M3NC4zNzY2IDEwOS40NTkgNzcuNzg2NSAxMTUuNDMyIDc5LjYxNTcgMTIxLjc2NVpNMTg2LjM4NCAxNDQuMjM2TDE4Ni4zODQgMTQ0LjIzNkwxODYuMzggMTQ0LjIyM0MxODUuMzI3IDE0MC45MTYgMTg0LjUwNSAxMzcuMTA0IDE4My42MDMgMTMyLjkxMkwxODMuNTk4IDEzMi44OUMxODAuNjQ4IDExOS4xODggMTc2Ljg2OCAxMDEuNjM0IDE2MS4yOSA4NS43NzE1QzE2MS4zNzQgODUuNzI5MyAxNjEuNDY0IDg1LjY4MjggMTYxLjU2MiA4NS42MzJDMTYyLjEzNiA4NS4zMzM0IDE2Mi45NTEgODQuODg0NyAxNjMuOTIgODQuMjgxM0MxNjUuODU3IDgzLjA3NTIgMTY4LjQxNyA4MS4yNDcgMTcwLjkwNiA3OC43NTgxQzE3My4zOTUgNzYuMjY5MiAxNzUuMjIzIDczLjcwOTIgMTc2LjQyOSA3MS43NzIxQzE3Ny4wMzMgNzAuODAzIDE3Ny40ODEgNjkuOTg4MyAxNzcuNzggNjkuNDE0MUMxNzcuODMxIDY5LjMxNjMgMTc3Ljg3NyA2OS4yMjU1IDE3Ny45MTkgNjkuMTQyMUMxOTMuNzgyIDg0LjcxOTcgMjExLjMzNiA4OC40OTk2IDIyNS4wMzggOTEuNDUwMUwyMjUuMDYgOTEuNDU0OEMyMjkuMjUyIDkyLjM1NzQgMjMzLjA2MyA5My4xNzg2IDIzNi4zNzEgOTQuMjMyM0wyMzYuMzcgOTQuMjMyNEwyMzYuMzg0IDk0LjIzNjJDMjQyLjcxNiA5Ni4wNjU1IDI0OC42ODkgOTkuNDc1MyAyNTMuNjgxIDEwNC40NjdDMjY5LjQ0IDEyMC4yMjYgMjY5LjQ0IDE0NS43NzUgMjUzLjY4MSAxNjEuNTMzQzIzNy45MjMgMTc3LjI5MiAyMTIuMzc0IDE3Ny4yOTIgMTk2LjYxNSAxNjEuNTMzQzE5MS42MjMgMTU2LjU0MSAxODguMjE0IDE1MC41NjkgMTg2LjM4NCAxNDQuMjM2Wk05NC4yMzIzIDI5LjYyOTNMOTQuMjMyNSAyOS42MjkzTDk0LjIzNjMgMjkuNjE2MkM5Ni4wNjU1IDIzLjI4MzUgOTkuNDc1NCAxNy4zMTA1IDEwNC40NjcgMTIuMzE4OEMxMjAuMjI2IC0zLjQzOTU5IDE0NS43NzUgLTMuNDM5NTkgMTYxLjUzMyAxMi4zMTg4QzE3Ny4yOTIgMjguMDc3MSAxNzcuMjkyIDUzLjYyNjUgMTYxLjUzMyA2OS4zODQ5QzE1Ni41NDEgNzQuMzc2NyAxNTAuNTY4IDc3Ljc4NjUgMTQ0LjIzNiA3OS42MTU4TDE0NC4yMzYgNzkuNjE1NkwxNDQuMjIzIDc5LjYxOThDMTQwLjkxNSA4MC42NzM0IDEzNy4xMDQgODEuNDk0NiAxMzIuOTEyIDgyLjM5NzNMMTMyLjg5IDgyLjQwMTlDMTE5LjE4OCA4NS4zNTI0IDEwMS42MzQgODkuMTMyMyA4NS43NzE1IDEwNC43MUM4NS43MjkzIDEwNC42MjYgODUuNjgyOCAxMDQuNTM2IDg1LjYzMiAxMDQuNDM4Qzg1LjMzMzQgMTAzLjg2NCA4NC44ODQ3IDEwMy4wNDkgODQuMjgxMyAxMDIuMDhDODMuMDc1MiAxMDAuMTQzIDgxLjI0NyA5Ny41ODI5IDc4Ljc1ODEgOTUuMDkzOUM3Ni4yNjkyIDkyLjYwNSA3My43MDkyIDkwLjc3NjggNzEuNzcyMSA4OS41NzA3QzcwLjgwMyA4OC45NjczIDY5Ljk4ODMgODguNTE4NiA2OS40MTQxIDg4LjIyQzY5LjMxNjMgODguMTY5MiA2OS4yMjU1IDg4LjEyMjcgNjkuMTQyMSA4OC4wODA2Qzg0LjcxOTcgNzIuMjE4IDg4LjQ5OTYgNTQuNjY0IDkxLjQ1MDEgNDAuOTYxOEw5MS40NTQ4IDQwLjk0MDFDOTIuMzU3NCAzNi43NDgyIDkzLjE3ODYgMzIuOTM2NCA5NC4yMzIzIDI5LjYyOTNaTTE3MS43NjggMjM2LjM3MUwxNzEuNzY4IDIzNi4zNzFMMTcxLjc2NCAyMzYuMzg0QzE2OS45MzQgMjQyLjcxNyAxNjYuNTI1IDI0OC42OSAxNjEuNTMzIDI1My42ODJDMTQ1Ljc3NCAyNjkuNDQgMTIwLjIyNSAyNjkuNDQgMTA0LjQ2NyAyNTMuNjgyQzg4LjcwODQgMjM3LjkyMyA4OC43MDg0IDIxMi4zNzQgMTA0LjQ2NyAxOTYuNjE2QzEwOS40NTkgMTkxLjYyNCAxMTUuNDMyIDE4OC4yMTQgMTIxLjc2NCAxODYuMzg1TDEyMS43NjQgMTg2LjM4NUwxMjEuNzc3IDE4Ni4zODFDMTI1LjA4NSAxODUuMzI3IDEyOC44OTYgMTg0LjUwNiAxMzMuMDg4IDE4My42MDNMMTMzLjExIDE4My41OThDMTQ2LjgxMiAxODAuNjQ4IDE2NC4zNjYgMTc2Ljg2OCAxODAuMjI5IDE2MS4yOUMxODAuMjcxIDE2MS4zNzQgMTgwLjMxNyAxNjEuNDY1IDE4MC4zNjggMTYxLjU2MkMxODAuNjY3IDE2Mi4xMzcgMTgxLjExNSAxNjIuOTUxIDE4MS43MTkgMTYzLjkyQzE4Mi45MjUgMTY1Ljg1OCAxODQuNzUzIDE2OC40MTggMTg3LjI0MiAxNzAuOTA2QzE4OS43MzEgMTczLjM5NSAxOTIuMjkxIDE3NS4yMjQgMTk0LjIyOCAxNzYuNDNDMTk1LjE5NyAxNzcuMDMzIDE5Ni4wMTIgMTc3LjQ4MiAxOTYuNTg2IDE3Ny43OEMxOTYuNjg0IDE3Ny44MzEgMTk2Ljc3NCAxNzcuODc4IDE5Ni44NTggMTc3LjkyQzE4MS4yOCAxOTMuNzgyIDE3Ny41IDIxMS4zMzYgMTc0LjU1IDIyNS4wMzlMMTc0LjU0NSAyMjUuMDZDMTczLjY0MyAyMjkuMjUyIDE3Mi44MjEgMjMzLjA2NCAxNzEuNzY4IDIzNi4zNzFaIi8+JiN4YTs8ZGVmcz4mI3hhOzxsaW5lYXJHcmFkaWVudCBncmFkaWVudFVuaXRzPSJ1c2VyU3BhY2VPblVzZSIgeTI9Ii0yOC4wMzI1IiB4Mj0iMTEyLjg1OSIgeTE9IjI3Ni4zODYiIHgxPSIxMTkuMjUxIiBpZD0icGFpbnQwX2xpbmVhcl8zNjFfMTUzNCI+JiN4YTs8c3RvcCBzdG9wLWNvbG9yPSIjRkYwMDRGIi8+JiN4YTs8c3RvcCBzdG9wLWNvbG9yPSIjRkYwNTgxIiBvZmZzZXQ9IjEiLz4mI3hhOzwvbGluZWFyR3JhZGllbnQ+JiN4YTs8bGluZWFyR3JhZGllbnQgZ3JhZGllbnRVbml0cz0idXNlclNwYWNlT25Vc2UiIHkyPSItMjguMDMyNSIgeDI9IjExMi44NTkiIHkxPSIyNzYuMzg2IiB4MT0iMTE5LjI1MSIgaWQ9InBhaW50MV9saW5lYXJfMzYxXzE1MzQiPiYjeGE7PHN0b3Agc3RvcC1jb2xvcj0iI0ZGMDA0RiIvPiYjeGE7PHN0b3Agc3RvcC1jb2xvcj0iI0ZGMDU4MSIgb2Zmc2V0PSIxIi8+JiN4YTs8L2xpbmVhckdyYWRpZW50PiYjeGE7PGxpbmVhckdyYWRpZW50IGdyYWRpZW50VW5pdHM9InVzZXJTcGFjZU9uVXNlIiB5Mj0iLTI4LjAzMjUiIHgyPSIxMTIuODU5IiB5MT0iMjc2LjM4NiIgeDE9IjExOS4yNTEiIGlkPSJwYWludDJfbGluZWFyXzM2MV8xNTM0Ij4mI3hhOzxzdG9wIHN0b3AtY29sb3I9IiNGRjAwNEYiLz4mI3hhOzxzdG9wIHN0b3AtY29sb3I9IiNGRjA1ODEiIG9mZnNldD0iMSIvPiYjeGE7PC9saW5lYXJHcmFkaWVudD4mI3hhOzxsaW5lYXJHcmFkaWVudCBncmFkaWVudFVuaXRzPSJ1c2VyU3BhY2VPblVzZSIgeTI9Ii0yOC4wMzI1IiB4Mj0iMTEyLjg1OSIgeTE9IjI3Ni4zODYiIHgxPSIxMTkuMjUxIiBpZD0icGFpbnQzX2xpbmVhcl8zNjFfMTUzNCI+JiN4YTs8c3RvcCBzdG9wLWNvbG9yPSIjRkYwMDRGIi8+JiN4YTs8c3RvcCBzdG9wLWNvbG9yPSIjRkYwNTgxIiBvZmZzZXQ9IjEiLz4mI3hhOzwvbGluZWFyR3JhZGllbnQ+JiN4YTs8L2RlZnM+JiN4YTs8L3N2Zz4=;rounded=1;labelBackgroundColor=none;" vertex="1" parent="WIyWlLk6GJQsqaUBKTNV-1">
          <mxGeometry x="267.03000000000003" y="260" width="85.94" height="20" as="geometry" />
        </mxCell>
        <mxCell id="mi-0mqEDp-cWeZ_jyFpW-17" value="" style="shape=image;verticalLabelPosition=bottom;verticalAlign=top;imageAspect=0;image=https://th.bing.com/th/id/OIP.DDK1_0LNFPSaqwaR1IlcbQAAAA?w=178&amp;h=180&amp;c=7&amp;r=0&amp;o=5&amp;dpr=1.3&amp;pid=1.7;rounded=1;labelBackgroundColor=none;" vertex="1" parent="WIyWlLk6GJQsqaUBKTNV-1">
          <mxGeometry x="530" y="150" width="70" height="70" as="geometry" />
        </mxCell>
        <mxCell id="mi-0mqEDp-cWeZ_jyFpW-18" value="OpenAI chat completion" style="text;html=1;strokeColor=none;fillColor=none;align=center;verticalAlign=middle;whiteSpace=wrap;rounded=1;labelBackgroundColor=none;" vertex="1" parent="WIyWlLk6GJQsqaUBKTNV-1">
          <mxGeometry x="495" y="120" width="140" height="30" as="geometry" />
        </mxCell>
        <mxCell id="mi-0mqEDp-cWeZ_jyFpW-20" value="" style="endArrow=classic;html=1;rounded=1;entryX=0;entryY=0.5;entryDx=0;entryDy=0;exitX=0;exitY=0;exitDx=120;exitDy=55;exitPerimeter=0;labelBackgroundColor=none;fontColor=default;" edge="1" parent="WIyWlLk6GJQsqaUBKTNV-1" source="mi-0mqEDp-cWeZ_jyFpW-15" target="mi-0mqEDp-cWeZ_jyFpW-17">
          <mxGeometry relative="1" as="geometry">
            <mxPoint x="460" y="340" as="sourcePoint" />
            <mxPoint x="560" y="340" as="targetPoint" />
          </mxGeometry>
        </mxCell>
        <mxCell id="mi-0mqEDp-cWeZ_jyFpW-21" value="API request" style="edgeLabel;resizable=0;html=1;align=center;verticalAlign=middle;rounded=1;labelBackgroundColor=none;" connectable="0" vertex="1" parent="mi-0mqEDp-cWeZ_jyFpW-20">
          <mxGeometry relative="1" as="geometry" />
        </mxCell>
        <mxCell id="mi-0mqEDp-cWeZ_jyFpW-24" value="expression exists?" style="text;html=1;strokeColor=none;fillColor=none;align=center;verticalAlign=middle;whiteSpace=wrap;rounded=1;labelBackgroundColor=none;" vertex="1" parent="WIyWlLk6GJQsqaUBKTNV-1">
          <mxGeometry x="500" y="220" width="110" height="30" as="geometry" />
        </mxCell>
        <mxCell id="mi-0mqEDp-cWeZ_jyFpW-25" value="" style="shape=actor;whiteSpace=wrap;html=1;rounded=1;labelBackgroundColor=none;" vertex="1" parent="WIyWlLk6GJQsqaUBKTNV-1">
          <mxGeometry x="50" y="230" width="40" height="60" as="geometry" />
        </mxCell>
        <mxCell id="mi-0mqEDp-cWeZ_jyFpW-34" style="edgeStyle=orthogonalEdgeStyle;rounded=1;orthogonalLoop=1;jettySize=auto;html=1;exitX=1;exitY=0;exitDx=0;exitDy=0;exitPerimeter=0;entryX=0;entryY=0;entryDx=60;entryDy=140;entryPerimeter=0;labelBackgroundColor=none;fontColor=default;" edge="1" parent="WIyWlLk6GJQsqaUBKTNV-1" source="mi-0mqEDp-cWeZ_jyFpW-26" target="mi-0mqEDp-cWeZ_jyFpW-15">
          <mxGeometry relative="1" as="geometry">
            <mxPoint x="310" y="370" as="targetPoint" />
            <Array as="points">
              <mxPoint x="645" y="540" />
              <mxPoint x="310" y="540" />
            </Array>
          </mxGeometry>
        </mxCell>
        <mxCell id="mi-0mqEDp-cWeZ_jyFpW-26" value="" style="strokeWidth=2;html=1;shape=mxgraph.flowchart.annotation_2;align=left;labelPosition=right;pointerEvents=1;rotation=90;rounded=1;labelBackgroundColor=none;" vertex="1" parent="WIyWlLk6GJQsqaUBKTNV-1">
          <mxGeometry x="525" y="175" width="80" height="160" as="geometry" />
        </mxCell>
        <mxCell id="mi-0mqEDp-cWeZ_jyFpW-27" value="yes" style="text;html=1;strokeColor=none;fillColor=none;align=center;verticalAlign=middle;whiteSpace=wrap;rounded=1;labelBackgroundColor=none;" vertex="1" parent="WIyWlLk6GJQsqaUBKTNV-1">
          <mxGeometry x="440" y="260" width="60" height="30" as="geometry" />
        </mxCell>
        <mxCell id="mi-0mqEDp-cWeZ_jyFpW-28" value="no" style="text;html=1;strokeColor=none;fillColor=none;align=center;verticalAlign=middle;whiteSpace=wrap;rounded=1;labelBackgroundColor=none;" vertex="1" parent="WIyWlLk6GJQsqaUBKTNV-1">
          <mxGeometry x="630" y="260" width="60" height="30" as="geometry" />
        </mxCell>
        <mxCell id="mi-0mqEDp-cWeZ_jyFpW-37" value="" style="edgeStyle=orthogonalEdgeStyle;rounded=1;orthogonalLoop=1;jettySize=auto;html=1;labelBackgroundColor=none;fontColor=default;" edge="1" parent="WIyWlLk6GJQsqaUBKTNV-1" source="mi-0mqEDp-cWeZ_jyFpW-29">
          <mxGeometry relative="1" as="geometry">
            <mxPoint x="494" y="410" as="targetPoint" />
          </mxGeometry>
        </mxCell>
        <mxCell id="mi-0mqEDp-cWeZ_jyFpW-29" value="extracts the expression based on function schema" style="shape=process;whiteSpace=wrap;html=1;backgroundOutline=1;rounded=1;labelBackgroundColor=none;" vertex="1" parent="WIyWlLk6GJQsqaUBKTNV-1">
          <mxGeometry x="414" y="290" width="160" height="60" as="geometry" />
        </mxCell>
        <mxCell id="mi-0mqEDp-cWeZ_jyFpW-35" value="asks for clarification from user" style="text;html=1;strokeColor=none;fillColor=none;align=center;verticalAlign=middle;whiteSpace=wrap;rounded=1;labelBackgroundColor=none;" vertex="1" parent="WIyWlLk6GJQsqaUBKTNV-1">
          <mxGeometry x="405" y="540" width="120" height="30" as="geometry" />
        </mxCell>
        <mxCell id="mi-0mqEDp-cWeZ_jyFpW-38" value="call the function to calculate value&amp;nbsp;" style="text;html=1;strokeColor=none;fillColor=none;align=center;verticalAlign=middle;whiteSpace=wrap;rounded=1;labelBackgroundColor=none;" vertex="1" parent="WIyWlLk6GJQsqaUBKTNV-1">
          <mxGeometry x="490" y="360" width="110" height="30" as="geometry" />
        </mxCell>
        <mxCell id="mi-0mqEDp-cWeZ_jyFpW-41" style="edgeStyle=orthogonalEdgeStyle;rounded=1;orthogonalLoop=1;jettySize=auto;html=1;exitX=0;exitY=0.5;exitDx=0;exitDy=0;entryX=0;entryY=0;entryDx=120;entryDy=110;entryPerimeter=0;labelBackgroundColor=none;fontColor=default;" edge="1" parent="WIyWlLk6GJQsqaUBKTNV-1" source="mi-0mqEDp-cWeZ_jyFpW-40" target="mi-0mqEDp-cWeZ_jyFpW-15">
          <mxGeometry relative="1" as="geometry" />
        </mxCell>
        <mxCell id="mi-0mqEDp-cWeZ_jyFpW-40" value="numexpr(expression)" style="rounded=1;whiteSpace=wrap;html=1;labelBackgroundColor=none;" vertex="1" parent="WIyWlLk6GJQsqaUBKTNV-1">
          <mxGeometry x="434" y="410" width="120" height="60" as="geometry" />
        </mxCell>
      </root>
    </mxGraphModel>
  </diagram>
</mxfile>
